<?xml version="1.0" encoding="UTF-8" standalone="no"?>
<!DOCTYPE svg PUBLIC "-//W3C//DTD SVG 20010904//EN"
              "http://www.w3.org/TR/2001/REC-SVG-20010904/DTD/svg10.dtd">

<svg version="1.1" xmlns="http://www.w3.org/2000/svg" xmlns:xlink="http://www.w3.org/1999/xlink" preserveAspectRatio="xMidYMid meet" viewBox="447 121 435 434">
  <g data-item-type="image" data-item="Image" data-logo-item="" id="logo__item--logo_0" class="logo__item">
    <g class="logo__item__inner" transform="translate(435.2040786743164 111.5) scale(3.0099198919932735 3.0099198919932735) rotate(0 0 0)">
  undefined
      <g>
        <path d="M17.1,55.7c0.6-1.2,1.1-2.4,1.7-3.6l-7.1,7.1c-5.9,5.9-7.8,14.1-5.9,21.7C7.2,77.3,8.9,73.4,11,69   C13.3,64,15.3,59.5,17.1,55.7z" data-part-id="logo__item--logo_0__0"></path>
        <path fill="#7d97ad" d="M114.2,63.1c-2.2,4.8-4,9.2-5.5,13.1c-1.5,3.9-2.8,8.1-4,12.5c-0.9,3.5-1.2,6.3-0.9,8.5   c0.3,2.2,1.1,3.3,2.4,3.3c1.3,0,2.8-0.3,4.4-0.9c1.6-0.6,3.3-1.3,5.1-2.2c1.8-0.9,3.5-1.9,5.3-3.1c1.8-1.2,3.5-2.4,5.2-3.7   c2.8-2.2,13.9-11.5,21.3-17.8c-0.6-4.9-2.6-9.7-6.4-13.5l-18.3-18.3c-0.9,3.1-1.9,6.1-3,8.9C118.2,53.9,116.4,58.2,114.2,63.1z" data-part-id="logo__item--logo_0__1"></path>
        <path d="M101.6,120.8c-4,1.2-8.3,1.8-13,1.8c-2.3,0-4-0.7-5.2-2.2c-1.2-1.5-1.9-3.5-2.1-6.1c-0.2-2.6-0.1-5.7,0.4-9.3   c0.5-3.5,1.4-7.4,2.5-11.6c1.1-4,2.4-8.3,3.9-12.8c1.5-4.5,3.1-9.1,4.9-13.7h-1.4l-32.5,49c-2.4,2.6-4.7,4.4-7,5.3   c-2.3,0.9-4.8,1.4-7.4,1.4c-0.9,0-1.6-0.1-2.3-0.4L60.2,140c8.9,8.9,23.4,8.9,32.3,0l28.9-28.9c-2.7,1.8-5.5,3.5-8.4,5   C109.4,118,105.6,119.6,101.6,120.8z" data-part-id="logo__item--logo_0__2"></path>
        <path d="M38.7,111.2c0.3-2,0.7-4,1.2-5.9c0.2-0.8,0.6-2,1.1-3.5c0.5-1.5,1.2-3.3,2-5.3c0.8-2,1.6-4.1,2.5-6.3   c0.9-2.2,1.8-4.4,2.7-6.6c2.1-5.1,4.4-10.6,7-16.5h-1.4c-1,1-2.3,2.4-3.8,4.3c-1.5,1.9-3.6,4.7-6.4,8.4c-2.8,3.7-6.3,8.5-10.7,14.4   c-2.3,3.1-5,6.7-7.9,10.6l14,14c-0.3-0.7-0.4-1.4-0.5-2.2C38.4,115.1,38.4,113.2,38.7,111.2z" data-part-id="logo__item--logo_0__3"></path>
        <path fill="#02b3e4" d="M47.4,29.6c0.5,0.6,0.7,1.5,0.5,2.6c-0.2,1.2-0.5,2.7-1.1,4.7c-0.3,1.1-0.7,2.3-1.1,3.7   c-0.5,1.4-1,2.9-1.6,4.5c-0.6,1.6-1.2,3.2-1.9,4.9c-1.3,3.2-2,4.9-2.1,5c-2.1,4.4-4.3,9.2-6.7,14.6l0.7,1.2   c0.2-0.2,1.5-1.9,3.9-5.1c2.4-3.2,4.9-6.4,7.6-9.5c2.7-3.1,5.5-6.4,8.5-9.9c3-3.4,5.8-6.5,8.4-9.1c2.5-2.6,5.1-4.8,7.6-6.5   c2.5-1.7,5.2-2.6,8.1-2.6c2.7,0,4.7,0.8,6.2,2.4c1.5,1.6,1.8,3.8,1.1,6.7c-0.7,2.5-1.5,4.9-2.4,7.1c-1.2,2.9-2.1,5.1-2.9,6.5   c-0.9,1.7-2,3.7-3.2,6.2c-1,2.1-2.6,5.2-4.8,9.1c-0.4,0.6-0.8,1.6-1.3,2.8c-0.2,0.4-0.3,0.6-0.3,0.8l0.7,1.2c0.2-0.2,1.5-1.9,4-5   c2.5-3.2,5.1-6.3,7.9-9.5c2.8-3.1,5.7-6.4,8.8-9.9c3.1-3.5,6-6.5,8.6-9.1c2.5-2.6,4.9-4.7,7.3-6.5c0.9-0.7,1.9-1.2,2.9-1.7   L92.5,10.8c-8.9-8.9-23.4-8.9-32.3,0L42.6,28.3c0.8,0,1.5,0.1,2.1,0.2C46,28.6,46.9,29,47.4,29.6z" data-part-id="logo__item--logo_0__4"></path>
    </g>
  </g>
</g>
</svg>
